<svg width="144" height="40" viewBox="0 0 144 40" fill="none" xmlns="http://www.w3.org/2000/svg">
<path d="M131.703 13.0908H134.159V16.8596L134.009 18.5283H134.159C134.422 18.0908 134.797 17.7346 135.284 17.4596C135.784 17.1721 136.34 17.0283 136.953 17.0283C138.14 17.0283 139.015 17.3783 139.578 18.0783C140.153 18.7783 140.44 19.7346 140.44 20.9471V26.5158H137.984V21.2471C137.984 20.6096 137.834 20.1283 137.534 19.8033C137.234 19.4658 136.815 19.2971 136.278 19.2971C135.94 19.2971 135.64 19.3721 135.378 19.5221C135.115 19.6596 134.89 19.8533 134.703 20.1033C134.528 20.3533 134.39 20.6471 134.29 20.9846C134.203 21.3096 134.159 21.6596 134.159 22.0346V26.5158H131.703V13.0908Z" fill="white"/>
<path d="M130.767 24.1721C130.367 24.9471 129.804 25.5846 129.079 26.0846C128.367 26.5721 127.473 26.8158 126.398 26.8158C125.686 26.8158 125.029 26.6971 124.429 26.4596C123.842 26.2096 123.329 25.8658 122.892 25.4283C122.467 24.9908 122.129 24.4783 121.879 23.8908C121.642 23.2908 121.523 22.6346 121.523 21.9221C121.523 21.2096 121.642 20.5533 121.879 19.9533C122.129 19.3533 122.467 18.8408 122.892 18.4158C123.329 17.9783 123.842 17.6408 124.429 17.4033C125.029 17.1533 125.686 17.0283 126.398 17.0283C127.461 17.0283 128.354 17.2721 129.079 17.7596C129.804 18.2471 130.336 18.8783 130.673 19.6533L128.423 20.5908C128.211 20.1658 127.936 19.8471 127.598 19.6346C127.273 19.4096 126.861 19.2971 126.361 19.2971C126.036 19.2971 125.729 19.3596 125.442 19.4846C125.154 19.6096 124.898 19.7846 124.673 20.0096C124.461 20.2346 124.292 20.5096 124.167 20.8346C124.042 21.1596 123.979 21.5221 123.979 21.9221C123.979 22.3221 124.042 22.6846 124.167 23.0096C124.292 23.3346 124.461 23.6096 124.673 23.8346C124.898 24.0596 125.154 24.2346 125.442 24.3596C125.729 24.4846 126.036 24.5471 126.361 24.5471C126.873 24.5471 127.304 24.4346 127.654 24.2096C128.017 23.9721 128.304 23.6346 128.517 23.1971L130.767 24.1721Z" fill="white"/>
<path d="M120.8 24.3033C120.375 25.0533 119.8 25.6596 119.075 26.1221C118.363 26.5846 117.488 26.8158 116.45 26.8158C115.75 26.8158 115.1 26.6971 114.5 26.4596C113.913 26.2096 113.4 25.8658 112.963 25.4283C112.525 24.9908 112.182 24.4783 111.932 23.8908C111.694 23.2908 111.575 22.6346 111.575 21.9221C111.575 21.2596 111.694 20.6346 111.932 20.0471C112.169 19.4471 112.5 18.9283 112.925 18.4908C113.35 18.0408 113.85 17.6846 114.425 17.4221C115.013 17.1596 115.657 17.0283 116.357 17.0283C117.094 17.0283 117.75 17.1533 118.325 17.4033C118.9 17.6408 119.382 17.9783 119.769 18.4158C120.157 18.8408 120.45 19.3471 120.65 19.9346C120.85 20.5221 120.95 21.1596 120.95 21.8471C120.95 21.9346 120.95 22.0096 120.95 22.0721C120.938 22.1471 120.932 22.2158 120.932 22.2783C120.919 22.3408 120.913 22.4096 120.913 22.4846H113.994C114.044 22.8596 114.144 23.1846 114.294 23.4596C114.457 23.7221 114.65 23.9471 114.875 24.1346C115.113 24.3096 115.369 24.4408 115.644 24.5283C115.919 24.6033 116.2 24.6408 116.488 24.6408C117.05 24.6408 117.513 24.5158 117.875 24.2658C118.25 24.0033 118.544 23.6783 118.757 23.2908L120.8 24.3033ZM118.569 20.7408C118.557 20.5783 118.5 20.3971 118.4 20.1971C118.313 19.9971 118.175 19.8096 117.988 19.6346C117.813 19.4596 117.588 19.3158 117.313 19.2033C117.05 19.0908 116.732 19.0346 116.357 19.0346C115.832 19.0346 115.369 19.1846 114.969 19.4846C114.569 19.7846 114.288 20.2033 114.125 20.7408H118.569Z" fill="white"/>
<path d="M106.383 26.5158V15.4908H102.633V13.0908H112.664V15.4908H108.914V26.5158H106.383Z" fill="white"/>
<path d="M102.077 24.3033C101.652 25.0533 101.077 25.6596 100.352 26.1221C99.6392 26.5846 98.7642 26.8158 97.7267 26.8158C97.0267 26.8158 96.3767 26.6971 95.7767 26.4596C95.1892 26.2096 94.6767 25.8658 94.2392 25.4283C93.8017 24.9908 93.4579 24.4783 93.2079 23.8908C92.9704 23.2908 92.8517 22.6346 92.8517 21.9221C92.8517 21.2596 92.9704 20.6346 93.2079 20.0471C93.4454 19.4471 93.7767 18.9283 94.2017 18.4908C94.6267 18.0408 95.1267 17.6846 95.7017 17.4221C96.2892 17.1596 96.9329 17.0283 97.6329 17.0283C98.3704 17.0283 99.0267 17.1533 99.6017 17.4033C100.177 17.6408 100.658 17.9783 101.045 18.4158C101.433 18.8408 101.727 19.3471 101.927 19.9346C102.127 20.5221 102.227 21.1596 102.227 21.8471C102.227 21.9346 102.227 22.0096 102.227 22.0721C102.214 22.1471 102.208 22.2158 102.208 22.2783C102.195 22.3408 102.189 22.4096 102.189 22.4846H95.2704C95.3204 22.8596 95.4204 23.1846 95.5704 23.4596C95.7329 23.7221 95.9267 23.9471 96.1517 24.1346C96.3892 24.3096 96.6454 24.4408 96.9204 24.5283C97.1954 24.6033 97.4767 24.6408 97.7642 24.6408C98.3267 24.6408 98.7892 24.5158 99.1517 24.2658C99.5267 24.0033 99.8204 23.6783 100.033 23.2908L102.077 24.3033ZM99.8454 20.7408C99.8329 20.5783 99.7767 20.3971 99.6767 20.1971C99.5892 19.9971 99.4517 19.8096 99.2642 19.6346C99.0892 19.4596 98.8642 19.3158 98.5892 19.2033C98.3267 19.0908 98.0079 19.0346 97.6329 19.0346C97.1079 19.0346 96.6454 19.1846 96.2454 19.4846C95.8454 19.7846 95.5642 20.2033 95.4017 20.7408H99.8454Z" fill="white"/>
<path d="M86.8713 17.3284H89.1776V18.6034H89.3276C89.4401 18.3784 89.5901 18.1722 89.7776 17.9847C89.9651 17.7972 90.1713 17.6347 90.3963 17.4972C90.6338 17.3597 90.8838 17.2534 91.1463 17.1784C91.4213 17.1034 91.6901 17.0659 91.9526 17.0659C92.2776 17.0659 92.5526 17.0972 92.7776 17.1597C93.0151 17.2222 93.2151 17.3034 93.3776 17.4034L92.7213 19.6347C92.5713 19.5597 92.4026 19.5034 92.2151 19.4659C92.0401 19.4159 91.8213 19.3909 91.5588 19.3909C91.2213 19.3909 90.9151 19.4597 90.6401 19.5972C90.3651 19.7222 90.1276 19.9034 89.9276 20.1409C89.7401 20.3784 89.5901 20.6597 89.4776 20.9847C89.3776 21.2972 89.3276 21.6409 89.3276 22.0159V26.5159H86.8713V17.3284Z" fill="white"/>
<path d="M83.0235 25.3159H82.8735C82.586 25.7784 82.1985 26.1471 81.711 26.4221C81.2235 26.6846 80.6672 26.8159 80.0422 26.8159C78.8797 26.8159 78.011 26.4596 77.436 25.7471C76.8735 25.0346 76.5922 24.0846 76.5922 22.8971V17.3284H79.0485V22.5971C79.0485 23.2596 79.1922 23.7534 79.4797 24.0784C79.7797 24.3909 80.211 24.5471 80.7735 24.5471C81.111 24.5471 81.4047 24.4784 81.6547 24.3409C81.9172 24.1909 82.136 23.9971 82.311 23.7596C82.4985 23.5096 82.636 23.2221 82.7235 22.8971C82.8235 22.5596 82.8735 22.2034 82.8735 21.8284V17.3284H85.3297V26.5159H83.0235V25.3159Z" fill="white"/>
<path d="M70.7166 19.4284H69.1041V17.3284H70.7166V14.5159H73.1728V17.3284H75.4228V19.4284H73.1728V22.9909C73.1728 23.2034 73.1916 23.4034 73.2291 23.5909C73.2791 23.7659 73.3666 23.9159 73.4916 24.0409C73.6666 24.2409 73.9166 24.3409 74.2416 24.3409C74.4541 24.3409 74.6228 24.3221 74.7478 24.2846C74.8728 24.2346 74.9916 24.1721 75.1041 24.0971L75.7978 26.2534C75.5103 26.3909 75.1978 26.4909 74.8603 26.5534C74.5353 26.6284 74.1728 26.6659 73.7728 26.6659C73.3103 26.6659 72.8916 26.5971 72.5166 26.4596C72.1541 26.3096 71.8478 26.1096 71.5978 25.8596C71.0103 25.2971 70.7166 24.4971 70.7166 23.4596V19.4284Z" fill="white"/>
<path d="M65.7647 25.3159H65.6147C65.3272 25.7784 64.9397 26.1471 64.4522 26.4221C63.9647 26.6846 63.4084 26.8159 62.7834 26.8159C61.6209 26.8159 60.7522 26.4596 60.1772 25.7471C59.6147 25.0346 59.3334 24.0846 59.3334 22.8971V17.3284H61.7897V22.5971C61.7897 23.2596 61.9334 23.7534 62.2209 24.0784C62.5209 24.3909 62.9522 24.5471 63.5147 24.5471C63.8522 24.5471 64.1459 24.4784 64.3959 24.3409C64.6584 24.1909 64.8772 23.9971 65.0522 23.7596C65.2397 23.5096 65.3772 23.2221 65.4647 22.8971C65.5647 22.5596 65.6147 22.2034 65.6147 21.8284V17.3284H68.0709V26.5159H65.7647V25.3159Z" fill="white"/>
<path d="M50.1818 13.0908H58.6943V15.4908H52.7131V18.7533H58.0943V21.1533H52.7131V26.5158H50.1818V13.0908Z" fill="white"/>
<path d="M26.6666 40.0001V33.3334C30.3555 33.3334 33.3333 30.3556 33.3333 26.6667H40C40 34.0445 34.0222 40.0001 26.6666 40.0001Z" fill="#FFD11A"/>
<path d="M26.6667 40.0001V33.3334C22.9778 33.3334 20 30.3556 20 26.6667H13.3333C13.3333 34.0445 19.3111 40.0001 26.6667 40.0001Z" fill="#FFD11A"/>
<path d="M0 26.6665H6.66667C6.66667 30.3554 9.64444 33.3332 13.3333 33.3332V39.9998C5.97778 39.9998 0 34.0443 0 26.6665Z" fill="#FFD11A"/>
<path d="M0 26.6666H6.66667C6.66667 22.9777 9.64444 19.9999 13.3333 19.9999V13.3333C5.97778 13.3333 0 19.311 0 26.6666Z" fill="#FFD11A"/>
<path d="M13.3333 0V6.66667C9.64444 6.66667 6.66667 9.64444 6.66667 13.3333H0C0 5.97778 5.97778 0 13.3333 0Z" fill="#FFD11A"/>
<path d="M13.3333 0V6.66667C17.0222 6.66667 20 9.64444 20 13.3333H26.6667C26.6667 5.97778 20.6889 0 13.3333 0Z" fill="#FFD11A"/>
<path d="M40 13.3333H33.3333C33.3333 9.64444 30.3556 6.66667 26.6667 6.66667V0C34.0222 0 40 5.97778 40 13.3333Z" fill="#FFD11A"/>
<path d="M40 13.3333H33.3334C33.3334 17.0221 30.3556 19.9999 26.6667 19.9999V26.6666C34.0223 26.6666 40 20.711 40 13.3333Z" fill="#FFD11A"/>
</svg>
