<svg width="126" height="35" viewBox="0 0 126 35" fill="none" xmlns="http://www.w3.org/2000/svg">
<path d="M115.24 11.4546H117.389V14.7522L117.258 16.2124H117.389C117.619 15.8296 117.947 15.5179 118.374 15.2772C118.811 15.0257 119.298 14.8999 119.834 14.8999C120.873 14.8999 121.638 15.2062 122.131 15.8187C122.634 16.4312 122.885 17.2679 122.885 18.3288V23.2015H120.736V18.5913C120.736 18.0335 120.605 17.6124 120.342 17.328C120.08 17.0327 119.713 16.8851 119.243 16.8851C118.948 16.8851 118.685 16.9507 118.456 17.0819C118.226 17.2022 118.029 17.3718 117.865 17.5905C117.712 17.8093 117.592 18.0663 117.504 18.3616C117.427 18.646 117.389 18.9522 117.389 19.2804V23.2015H115.24V11.4546Z" fill="white"/>
<path d="M114.421 21.1507C114.071 21.8288 113.579 22.3866 112.944 22.8241C112.321 23.2507 111.539 23.464 110.598 23.464C109.975 23.464 109.401 23.3601 108.876 23.1522C108.362 22.9335 107.913 22.6327 107.53 22.2499C107.158 21.8671 106.863 21.4187 106.644 20.9046C106.437 20.3796 106.333 19.8054 106.333 19.1819C106.333 18.5585 106.437 17.9843 106.644 17.4593C106.863 16.9343 107.158 16.4858 107.53 16.114C107.913 15.7312 108.362 15.4358 108.876 15.228C109.401 15.0093 109.975 14.8999 110.598 14.8999C111.528 14.8999 112.31 15.1132 112.944 15.5397C113.579 15.9663 114.044 16.5187 114.339 17.1968L112.37 18.0171C112.184 17.6452 111.944 17.3663 111.648 17.1804C111.364 16.9835 111.003 16.8851 110.566 16.8851C110.281 16.8851 110.013 16.9397 109.762 17.0491C109.51 17.1585 109.286 17.3116 109.089 17.5085C108.903 17.7054 108.755 17.946 108.646 18.2304C108.537 18.5147 108.482 18.8319 108.482 19.1819C108.482 19.5319 108.537 19.8491 108.646 20.1335C108.755 20.4179 108.903 20.6585 109.089 20.8554C109.286 21.0522 109.51 21.2054 109.762 21.3147C110.013 21.4241 110.281 21.4788 110.566 21.4788C111.014 21.4788 111.391 21.3804 111.698 21.1835C112.015 20.9757 112.266 20.6804 112.452 20.2976L114.421 21.1507Z" fill="white"/>
<path d="M105.7 21.2655C105.328 21.9218 104.825 22.4522 104.191 22.8569C103.567 23.2616 102.802 23.464 101.894 23.464C101.282 23.464 100.713 23.3601 100.188 23.1522C99.6737 22.9335 99.2253 22.6327 98.8425 22.2499C98.4596 21.8671 98.1589 21.4187 97.9401 20.9046C97.7323 20.3796 97.6284 19.8054 97.6284 19.1819C97.6284 18.6022 97.7323 18.0554 97.9401 17.5413C98.1479 17.0163 98.4378 16.5624 98.8096 16.1796C99.1815 15.7858 99.619 15.4741 100.122 15.2444C100.636 15.0147 101.199 14.8999 101.812 14.8999C102.457 14.8999 103.032 15.0093 103.535 15.228C104.038 15.4358 104.459 15.7312 104.798 16.114C105.137 16.4858 105.394 16.9288 105.569 17.4429C105.744 17.9569 105.832 18.5147 105.832 19.1163C105.832 19.1929 105.832 19.2585 105.832 19.3132C105.821 19.3788 105.815 19.439 105.815 19.4937C105.804 19.5483 105.799 19.6085 105.799 19.6741H99.7448C99.7885 20.0022 99.876 20.2866 100.007 20.5272C100.149 20.7569 100.319 20.9538 100.516 21.1179C100.724 21.271 100.948 21.3858 101.189 21.4624C101.429 21.528 101.675 21.5608 101.927 21.5608C102.419 21.5608 102.824 21.4515 103.141 21.2327C103.469 21.003 103.726 20.7187 103.912 20.3796L105.7 21.2655ZM103.748 18.1483C103.737 18.0062 103.688 17.8476 103.6 17.6726C103.524 17.4976 103.403 17.3335 103.239 17.1804C103.086 17.0272 102.889 16.9015 102.649 16.803C102.419 16.7046 102.14 16.6554 101.812 16.6554C101.353 16.6554 100.948 16.7866 100.598 17.0491C100.248 17.3116 100.002 17.678 99.8596 18.1483H103.748Z" fill="white"/>
<path d="M93.085 23.2015V13.5546H89.8038V11.4546H98.5811V13.5546H95.2999V23.2015H93.085Z" fill="white"/>
<path d="M89.3171 21.2655C88.9452 21.9218 88.4421 22.4522 87.8077 22.8569C87.1843 23.2616 86.4186 23.464 85.5108 23.464C84.8983 23.464 84.3296 23.3601 83.8046 23.1522C83.2905 22.9335 82.8421 22.6327 82.4593 22.2499C82.0765 21.8671 81.7757 21.4187 81.5569 20.9046C81.3491 20.3796 81.2452 19.8054 81.2452 19.1819C81.2452 18.6022 81.3491 18.0554 81.5569 17.5413C81.7647 17.0163 82.0546 16.5624 82.4265 16.1796C82.7983 15.7858 83.2358 15.4741 83.739 15.2444C84.253 15.0147 84.8163 14.8999 85.4288 14.8999C86.0741 14.8999 86.6483 15.0093 87.1515 15.228C87.6546 15.4358 88.0757 15.7312 88.4147 16.114C88.7538 16.4858 89.0108 16.9288 89.1858 17.4429C89.3608 17.9569 89.4483 18.5147 89.4483 19.1163C89.4483 19.1929 89.4483 19.2585 89.4483 19.3132C89.4374 19.3788 89.4319 19.439 89.4319 19.4937C89.421 19.5483 89.4155 19.6085 89.4155 19.6741H83.3616C83.4054 20.0022 83.4929 20.2866 83.6241 20.5272C83.7663 20.7569 83.9358 20.9538 84.1327 21.1179C84.3405 21.271 84.5647 21.3858 84.8054 21.4624C85.046 21.528 85.2921 21.5608 85.5436 21.5608C86.0358 21.5608 86.4405 21.4515 86.7577 21.2327C87.0858 21.003 87.3429 20.7187 87.5288 20.3796L89.3171 21.2655ZM87.3647 18.1483C87.3538 18.0062 87.3046 17.8476 87.2171 17.6726C87.1405 17.4976 87.0202 17.3335 86.8561 17.1804C86.703 17.0272 86.5062 16.9015 86.2655 16.803C86.0358 16.7046 85.7569 16.6554 85.4288 16.6554C84.9694 16.6554 84.5647 16.7866 84.2147 17.0491C83.8647 17.3116 83.6186 17.678 83.4765 18.1483H87.3647Z" fill="white"/>
<path d="M76.0124 15.1623H78.0304V16.2779H78.1616C78.2601 16.0811 78.3913 15.9006 78.5554 15.7365C78.7195 15.5725 78.8999 15.4303 79.0968 15.31C79.3046 15.1896 79.5234 15.0967 79.753 15.0311C79.9937 14.9654 80.2288 14.9326 80.4585 14.9326C80.7429 14.9326 80.9835 14.96 81.1804 15.0146C81.3882 15.0693 81.5632 15.1404 81.7054 15.2279L81.1312 17.1803C80.9999 17.1146 80.8523 17.0654 80.6882 17.0326C80.5351 16.9889 80.3437 16.967 80.114 16.967C79.8187 16.967 79.5507 17.0271 79.3101 17.1475C79.0695 17.2568 78.8616 17.4154 78.6866 17.6232C78.5226 17.8311 78.3913 18.0771 78.2929 18.3615C78.2054 18.635 78.1616 18.9357 78.1616 19.2639V23.2014H76.0124V15.1623Z" fill="white"/>
<path d="M72.6455 22.1514H72.5143C72.2627 22.5561 71.9237 22.8788 71.4971 23.1194C71.0705 23.3491 70.5838 23.4639 70.0369 23.4639C69.0198 23.4639 68.2596 23.1522 67.7565 22.5288C67.2643 21.9053 67.0182 21.0741 67.0182 20.035V15.1624H69.1674V19.7725C69.1674 20.3522 69.2932 20.7842 69.5448 21.0686C69.8073 21.342 70.1846 21.4788 70.6768 21.4788C70.9721 21.4788 71.2291 21.4186 71.4479 21.2983C71.6776 21.167 71.869 20.9975 72.0221 20.7897C72.1862 20.5709 72.3065 20.3194 72.383 20.035C72.4705 19.7397 72.5143 19.428 72.5143 19.0999V15.1624H74.6635V23.2014H72.6455V22.1514Z" fill="white"/>
<path d="M61.877 16.9999H60.4661V15.1624H61.877V12.7014H64.0262V15.1624H65.995V16.9999H64.0262V20.117C64.0262 20.303 64.0426 20.478 64.0754 20.642C64.1192 20.7952 64.1958 20.9264 64.3051 21.0358C64.4583 21.2108 64.677 21.2983 64.9614 21.2983C65.1473 21.2983 65.295 21.2819 65.4043 21.2491C65.5137 21.2053 65.6176 21.1506 65.7161 21.085L66.3231 22.9717C66.0715 23.092 65.7981 23.1795 65.5028 23.2342C65.2184 23.2999 64.9012 23.3327 64.5512 23.3327C64.1465 23.3327 63.7801 23.2725 63.452 23.1522C63.1348 23.0209 62.8668 22.8459 62.6481 22.6272C62.134 22.135 61.877 21.435 61.877 20.5272V16.9999Z" fill="white"/>
<path d="M57.5441 22.1514H57.4128C57.1613 22.5561 56.8222 22.8788 56.3957 23.1194C55.9691 23.3491 55.4824 23.4639 54.9355 23.4639C53.9183 23.4639 53.1582 23.1522 52.655 22.5288C52.1628 21.9053 51.9167 21.0741 51.9167 20.035V15.1624H54.066V19.7725C54.066 20.3522 54.1917 20.7842 54.4433 21.0686C54.7058 21.342 55.0832 21.4788 55.5753 21.4788C55.8707 21.4788 56.1277 21.4186 56.3464 21.2983C56.5761 21.167 56.7675 20.9975 56.9207 20.7897C57.0847 20.5709 57.205 20.3194 57.2816 20.035C57.3691 19.7397 57.4128 19.428 57.4128 19.0999V15.1624H59.5621V23.2014H57.5441V22.1514Z" fill="white"/>
<path d="M43.9091 11.4546H51.3575V13.5546H46.1239V16.4093H50.8325V18.5093H46.1239V23.2015H43.9091V11.4546Z" fill="white"/>
<path d="M23.3333 34.9999V29.1666C26.5611 29.1666 29.1666 26.561 29.1666 23.3333H35C35 29.7888 29.7694 34.9999 23.3333 34.9999Z" fill="#FFD11A"/>
<path d="M23.3333 34.9999V29.1666C20.1055 29.1666 17.5 26.561 17.5 23.3333H11.6667C11.6667 29.7888 16.8972 34.9999 23.3333 34.9999Z" fill="#FFD11A"/>
<path d="M0 23.3335H5.83333C5.83333 26.5613 8.43889 29.1668 11.6667 29.1668V35.0002C5.23056 35.0002 0 29.7891 0 23.3335Z" fill="#FFD11A"/>
<path d="M0 23.3334H5.83333C5.83333 20.1056 8.43889 17.5001 11.6667 17.5001V11.6667C5.23056 11.6667 0 16.8973 0 23.3334Z" fill="#FFD11A"/>
<path d="M11.6667 0V5.83333C8.43889 5.83333 5.83333 8.43889 5.83333 11.6667H0C0 5.23056 5.23056 0 11.6667 0Z" fill="#FFD11A"/>
<path d="M11.6667 0V5.83333C14.8944 5.83333 17.5 8.43889 17.5 11.6667H23.3333C23.3333 5.23056 18.1028 0 11.6667 0Z" fill="#FFD11A"/>
<path d="M35 11.6667H29.1667C29.1667 8.43889 26.5611 5.83333 23.3333 5.83333V0C29.7695 0 35 5.23056 35 11.6667Z" fill="#FFD11A"/>
<path d="M35 11.6667H29.1667C29.1667 14.8945 26.5612 17.5001 23.3334 17.5001V23.3334C29.7695 23.3334 35 18.1223 35 11.6667Z" fill="#FFD11A"/>
</svg>
